<?xml version="1.0" encoding="UTF-8" standalone="no"?>
<!-- Created with Inkscape (http://www.inkscape.org/) -->

<svg
   width="210mm"
   height="297mm"
   viewBox="0 0 210 297"
   version="1.1"
   id="svg1"
   inkscape:version="1.4 (86a8ad7, 2024-10-11)"
   sodipodi:docname="basketball.svg"
   xmlns:inkscape="http://www.inkscape.org/namespaces/inkscape"
   xmlns:sodipodi="http://sodipodi.sourceforge.net/DTD/sodipodi-0.dtd"
   xmlns="http://www.w3.org/2000/svg"
   xmlns:svg="http://www.w3.org/2000/svg">
  <sodipodi:namedview
     id="namedview1"
     pagecolor="#505050"
     bordercolor="#eeeeee"
     borderopacity="1"
     inkscape:showpageshadow="0"
     inkscape:pageopacity="0"
     inkscape:pagecheckerboard="0"
     inkscape:deskcolor="#505050"
     inkscape:document-units="mm"
     inkscape:zoom="1.5393939"
     inkscape:cx="396.58465"
     inkscape:cy="561.25984"
     inkscape:window-width="3840"
     inkscape:window-height="1994"
     inkscape:window-x="2869"
     inkscape:window-y="49"
     inkscape:window-maximized="1"
     inkscape:current-layer="layer1" />
  <defs
     id="defs1" />
  <g
     inkscape:label="Layer 1"
     inkscape:groupmode="layer"
     id="layer1">
    <path
       d="m 116.26638,137.4107 c -0.0201,0.74107 -0.20346,2.25041 -0.20346,2.25041 l 1.13956,0.0814 c -0.22358,-3.02152 1.84864,-5.85486 1.86372,-5.87537 -0.9734,-1.13766 -2.37648,-1.89533 -3.95869,-2.0222 1.34249,3.06913 1.15887,5.56572 1.15887,5.56572 z"
       fill="#ffdd3b"
       id="path4"
       style="stroke-width:0.264583" />
    <path
       d="m 117.26862,139.80846 -1.27397,-0.091 0.008,-0.0636 c 0.002,-0.0151 0.18309,-1.51508 0.2032,-2.2448 0.002,-0.0276 0.16642,-2.52111 -1.15411,-5.53959 l -0.0407,-0.0935 0.1016,0.008 c 1.55919,0.12504 2.97974,0.85071 4.0005,2.04332 l 0.0315,0.0368 -0.0286,0.0389 c -0.0849,0.11563 -2.07195,2.86583 -1.85208,5.83472 z m -1.13744,-0.20368 1.00542,0.0718 c -0.17701,-2.8298 1.59358,-5.44139 1.85182,-5.80601 -0.97473,-1.12069 -2.31352,-1.81206 -3.78434,-1.95578 1.28905,3.0054 1.12501,5.47547 1.12316,5.50027 -0.0175,0.64643 -0.16114,1.89423 -0.19606,2.18974 z"
       fill="#ffdd3b"
       id="path5"
       style="stroke-width:0.264583" />
    <path
       d="m 119.10907,133.91534 c 0.16721,0.20771 0.49635,0.69434 0.52784,0.74086 -0.1569,-0.26096 -0.33338,-0.50848 -0.52784,-0.74086 z"
       fill="#ffdd3b"
       id="path6"
       style="stroke-width:0.264583" />
    <path
       d="m 119.58611,134.69133 c -0.0365,-0.054 -0.36089,-0.5335 -0.52493,-0.73668 l 0.0942,-0.0775 c 0.19685,0.23482 0.37623,0.48673 0.53366,0.74867 z"
       fill="#ffdd3b"
       id="path7"
       style="stroke-width:0.264583" />
    <path
       d="m 120.46611,137.65485 c 0,-1.09408 -0.30215,-2.11732 -0.82629,-2.9922 -2.01904,2.3072 -1.70471,5.05945 -1.70471,5.05945 1.76133,-0.10121 2.26748,-0.34518 2.27277,-0.34775 0.16775,-0.54361 0.25823,-1.12093 0.25823,-1.7195 z"
       fill="#ffdd3b"
       id="path8"
       style="stroke-width:0.264583" />
    <path
       d="m 117.88087,139.78634 -0.007,-0.0574 c -0.003,-0.0278 -0.29395,-2.80575 1.71953,-5.10659 l 0.0553,-0.0631 0.0431,0.0719 c 0.5461,0.91141 0.83476,1.95702 0.83476,3.02361 0,0.59147 -0.0876,1.17612 -0.26062,1.73744 l -0.008,0.0255 -0.0241,0.0116 c -0.0214,0.0103 -0.54663,0.25312 -2.29553,0.35361 z m 1.74942,-5.01952 c -1.76027,2.06322 -1.66846,4.4886 -1.63962,4.89072 1.49781,-0.0901 2.05105,-0.28123 2.16694,-0.32824 0.16404,-0.54153 0.24712,-1.10469 0.24712,-1.67468 0,-1.01603 -0.26749,-2.01266 -0.77444,-2.8878 z"
       fill="#ffdd3b"
       id="path9"
       style="stroke-width:0.264583" />
    <path
       d="m 118.43808,142.07321 -0.56277,0.42984 c 0.19659,-0.13176 0.38391,-0.27585 0.56277,-0.42984 z"
       fill="#ffdd3b"
       id="path10"
       style="stroke-width:0.264583" />
    <path
       d="m 117.90918,142.55351 -0.0712,-0.0993 0.56277,-0.42982 0.077,0.0948 c -0.18494,0.15936 -0.37624,0.30551 -0.56859,0.43434 z"
       fill="#ffdd3b"
       id="path11"
       style="stroke-width:0.264583" />
    <path
       d="m 115.30356,139.59938 c 0.21749,-0.40698 0.23046,-2.30415 0.23046,-2.30415 -0.0201,-3.59089 -1.34409,-5.41491 -1.37055,-5.45093 -1.28667,0.10318 -2.45507,0.62347 -3.37052,1.42656 4.4151,2.82883 3.41788,6.08431 3.41788,6.08431 z"
       fill="#ffdd3b"
       id="path12"
       style="stroke-width:0.264583" />
    <path
       d="m 115.33558,139.66942 -1.202,-0.26877 0.0191,-0.063 c 0.01,-0.0321 0.92842,-3.24631 -3.39249,-6.01507 l -0.0685,-0.0437 0.0611,-0.0535 c 0.95885,-0.84131 2.13651,-1.33975 3.40572,-1.44158 l 0.0339,-0.003 0.0204,0.0274 c 0.0556,0.0756 1.36234,1.89118 1.38218,5.48671 -5.3e-4,0.0789 -0.0153,1.9178 -0.23733,2.33333 z m -1.05013,-0.35986 0.98345,0.21981 c 0.18971,-0.46463 0.20373,-2.21599 0.204,-2.2343 -0.0188,-3.3611 -1.16735,-5.13957 -1.33906,-5.38672 -1.2028,0.10355 -2.32066,0.57158 -3.23929,1.35575 3.99018,2.59415 3.49885,5.57476 3.3909,6.04546 z"
       fill="#ffdd3b"
       id="path13"
       sodipodi:nodetypes="cccccccccccccccccc"
       style="stroke-width:0.264583" />
    <path
       d="m 117.87082,142.50559 c -0.34873,-0.33078 -0.6276,-2.05073 -0.6276,-2.05073 l -1.26206,-0.0611 c -0.55827,2.38729 -1.02632,3.01885 -1.09061,3.08542 1.09987,-0.0474 2.12063,-0.39908 2.98027,-0.97362 z"
       fill="#ffdd3b"
       id="path14"
       style="stroke-width:0.264583" />
    <path
       d="m 114.74027,143.54609 0.10662,-0.11004 c 0.005,-0.005 0.48181,-0.52067 1.075,-3.05681 l 0.0116,-0.0496 1.36207,0.0659 0.008,0.0488 c 0.0767,0.47282 0.33549,1.75647 0.60933,2.01621 l 0.0556,0.0526 -0.0638,0.0425 c -0.8935,0.59724 -1.9349,0.93744 -3.01149,0.98385 z m 1.28905,-3.08956 c -0.45562,1.93193 -0.85196,2.6983 -1.01521,2.95412 0.9861,-0.0642 1.93781,-0.38012 2.76437,-0.91815 -0.3056,-0.40016 -0.54055,-1.70479 -0.58738,-1.9798 z"
       fill="#ffdd3b"
       id="path15"
       sodipodi:nodetypes="cccccscccccccccc"
       style="stroke-width:0.264583" />
    <path
       d="m 108.89033,136.66529 0.49741,0.45815 c 1.70948,1.36953 4.15158,2.0697 4.15158,2.0697 0.34581,-1.38382 -0.48842,-2.68634 -0.48842,-2.68634 -1.33562,-2.08436 -2.82866,-2.63407 -2.84559,-2.64018 -0.66887,0.78135 -1.13427,1.7411 -1.31498,2.79867 z"
       fill="#ffdd3b"
       id="path16"
       style="stroke-width:0.264583" />
    <path
       d="m 113.58324,139.26905 -0.0606,-0.0175 c -0.0246,-0.007 -2.47359,-0.71922 -4.17301,-2.08082 l -0.52519,-0.48329 0.006,-0.0327 c 0.17833,-1.04304 0.63764,-2.02086 1.32873,-2.82809 l 0.0275,-0.0322 0.0397,0.0145 c 0.0624,0.0228 1.54252,0.5833 2.87628,2.66459 0.008,0.0132 0.84455,1.34072 0.4961,2.7341 z m -4.62703,-2.62639 0.47307,0.43556 c 1.52744,1.22362 3.67692,1.91828 4.06559,2.03758 0.29581,-1.31849 -0.48736,-2.56373 -0.4953,-2.57632 -1.20862,-1.88603 -2.52836,-2.49816 -2.77601,-2.60024 -0.65378,0.77538 -1.0914,1.70862 -1.26735,2.70342 z"
       fill="#ffdd3b"
       id="path17"
       sodipodi:nodetypes="csccccccssccccccc"
       style="stroke-width:0.264583" />
    <path
       d="m 111.52293,142.58438 c 0.75459,0.47734 1.6256,0.78677 2.5617,0.87456 0.52414,-0.53779 1.21893,-3.16698 1.21893,-3.16698 l -1.34355,-0.20135 c -0.69268,2.16138 -2.40824,2.4884 -2.43708,2.49377 z"
       fill="#ffdd3b"
       id="path18"
       style="stroke-width:0.264583" />
    <path
       d="m 114.10818,143.52244 -0.0291,-0.003 c -0.91546,-0.0858 -1.81054,-0.39148 -2.58868,-0.88371 l -0.13124,-0.0831 0.15267,-0.0286 c 0.0696,-0.0129 1.71397,-0.34276 2.39025,-2.45247 l 0.0159,-0.0495 1.46235,0.21918 -0.0175,0.0659 c -0.0286,0.10795 -0.70538,2.65094 -1.23455,3.19397 z m -2.42994,-0.91427 c 0.72417,0.43278 1.54411,0.70398 2.38231,0.78703 0.45905,-0.51385 1.05622,-2.64922 1.16628,-3.05305 l -1.22475,-0.18354 c -0.59664,1.79797 -1.88886,2.32134 -2.32384,2.44956 z"
       fill="#ffdd3b"
       id="path19"
       style="stroke-width:0.264583" />
    <path
       d="m 115.08502,131.84264 c -0.1487,-0.0112 -0.29845,-0.0189 -0.44979,-0.0189 -0.15135,0 -0.3011,0.008 -0.4498,0.0189 z"
       fill="#ffdd3b"
       id="path20"
       style="stroke-width:0.264583" />
    <path
       d="m 115.08502,131.90409 h -0.89932 l -0.005,-0.12199 c 0.34263,-0.0261 0.5662,-0.0261 0.90858,0 z"
       fill="#ffdd3b"
       id="path21"
       style="stroke-width:0.264583" />
    <path
       d="m 114.10235,143.46 c 0.17542,0.0159 0.35322,0.0253 0.53288,0.0253 0.0299,0 0.1815,-0.002 0.21113,-0.002 -0.20505,-0.006 -0.66516,-0.0198 -0.74401,-0.0229 z"
       fill="#ffdd3b"
       id="path22"
       style="stroke-width:0.264583" />
    <path
       d="m 114.63523,143.54652 c -0.17278,0 -0.34899,-0.008 -0.53843,-0.0255 l 0.008,-0.12186 c 0.0709,0.003 0.45032,0.0142 0.67468,0.0209 l 0.0688,0.002 -8e-4,0.12211 c -0.0299,5e-4 -0.1823,0.002 -0.21219,0.002 z"
       fill="#ffdd3b"
       id="path23"
       style="stroke-width:0.264583" />
    <path
       d="m 117.99596,140.43327 c -0.0405,0.44508 0.44477,1.6165 0.45059,1.63092 0.58288,-0.50422 1.06495,-1.12149 1.41155,-1.81851 -0.19658,0.0767 -1.86214,0.18759 -1.86214,0.18759 z"
       fill="#ffdd3b"
       id="path24"
       style="stroke-width:0.264583" />
    <path
       d="m 118.42247,142.16613 -0.0323,-0.0784 c -0.0508,-0.12296 -0.49556,-1.21391 -0.45508,-1.6596 l 0.005,-0.0519 0.0521,-0.003 c 0.6657,-0.0443 1.70604,-0.1298 1.84389,-0.18341 l 0.14737,-0.0574 -0.0704,0.14153 c -0.34952,0.70287 -0.82947,1.32112 -1.4261,1.8374 z m -0.36777,-1.67523 c 2.7e-4,0.34411 0.25268,1.06346 0.41619,1.47118 0.52255,-0.46534 0.95038,-1.01229 1.2737,-1.62811 -0.39422,0.0659 -1.41287,0.13811 -1.68989,0.15693 z"
       fill="#ffdd3b"
       id="path25"
       style="stroke-width:0.264583" />
    <path
       d="m 119.86207,140.23729 c 0.13679,-0.27609 0.25321,-0.56417 0.34528,-0.86286 z"
       fill="#ffdd3b"
       id="path26"
       style="stroke-width:0.264583" />
    <path
       d="m 119.91684,140.26539 -0.11139,-0.0498 0.34528,-0.86283 0.11509,0.0407 c -0.0913,0.29552 -0.20875,0.58883 -0.34898,0.87199 z"
       fill="#ffdd3b"
       id="path27"
       style="stroke-width:0.264583" />
    <path
       d="m 110.78236,133.27966 c -0.2032,0.1789 -0.39317,0.37159 -0.56964,0.57686 z"
       fill="#ffdd3b"
       id="path28"
       style="stroke-width:0.264583" />
    <path
       d="m 110.25637,133.8996 -0.0897,-0.0827 c 0.17806,-0.20735 0.37174,-0.40346 0.57547,-0.58284 l 0.0839,0.0887 z"
       fill="#ffdd3b"
       id="path29"
       sodipodi:nodetypes="ccccc"
       style="stroke-width:0.264583" />
    <path
       d="m 110.74638,141.99841 c 0.23812,0.21344 0.49451,0.40688 0.76544,0.57918 z"
       fill="#ffdd3b"
       id="path30"
       style="stroke-width:0.264583" />
    <path
       d="m 111.47928,142.62812 c -0.27491,-0.17486 -0.53526,-0.37171 -0.77365,-0.58518 l 0.0775,-0.0941 0.7657,0.57918 z"
       fill="#ffdd3b"
       id="path31"
       style="stroke-width:0.264583" />
    <path
       d="m 108.80487,137.65499 0.0833,-0.97909 c -0.054,0.31858 -0.0833,0.64537 -0.0833,0.97909 z"
       fill="#ffdd3b"
       id="path32"
       style="stroke-width:0.264583" />
    <path
       d="m 108.86572,137.65988 -0.12197,-0.005 c 0,-0.32568 0.0283,-0.65855 0.0841,-0.98923 l 0.12118,0.0154 z"
       fill="#ffdd3b"
       id="path33"
       style="stroke-width:0.264583" />
    <path
       d="m 113.29511,139.86367 c -2.62519,-0.65135 -4.49024,-2.20987 -4.49024,-2.20987 0,1.72227 0.74718,3.2698 1.93463,4.33718 2.14365,-0.21347 2.55561,-2.12731 2.55561,-2.12731 z"
       fill="#ffdd3b"
       id="path34"
       sodipodi:nodetypes="cccc"
       style="stroke-width:0.264583" />
    <path
       d="m 110.7186,142.05461 -0.0201,-0.018 c -1.24222,-1.11696 -1.95474,-2.7143 -1.95474,-4.38271 v -0.13055 l 0.10028,0.0837 c 0.0185,0.0155 1.88542,1.55729 4.4659,2.19739 l 0.0574,0.0143 -0.0124,0.0579 c -0.004,0.0195 -0.44636,1.9599 -2.60959,2.17517 z m -1.85129,-4.27321 c 0.0352,1.57843 0.72019,3.082 1.89283,4.14621 1.84414,-0.1977 2.3704,-1.70566 2.46036,-2.01975 -2.23626,-0.56904 -3.93145,-1.80028 -4.35319,-2.12646 z"
       fill="#ffdd3b"
       id="path35"
       style="stroke-width:0.264583" />
  </g>
</svg>
