<svg xmlns="http://www.w3.org/2000/svg" width="64" height="64" viewBox="0 0 32 32">
  <path
    d="M21.5 12.4c-0.2-3.8-2-5.8-4-6.4 2 0.9 3.2 3.8 3.4 7-0.2 0.2-0.6 0.4-0.6 0.4-0.1-3-1.1-5.7-2.8-6.8-0.7-0.5-1.4-0.8-2.3-0.9-0.3 0-0.8 0.1-1.1 0.2 0.2 0.1 0.4 0.1 0.7 0.2 2.6 1.1 3.1 7.3 3.1 8.6-0.3 0.1-0.7 0.2-0.7 0.2-0.2-3.4-1.1-7.4-2.7-8.1-0.7-0.3-1.4-0.3-2-0.3-1.6 0.9-2.7 2.7-2.8 5.8-0.2 0.1-0.3 0.2-0.4 0.3-0.7 0.7-0.7 1 1.3 2 2 1 3.7 1.5 4.7 2 1 0.4 2.5 0.7 5.8-0.1 3.6-0.7 2.1-2.3 0.4-4.1z"
    fill="#ffdd3b"
  />
</svg>