<?xml version="1.0" encoding="UTF-8" standalone="no"?>
<!-- Created with Inkscape (http://www.inkscape.org/) -->

<svg
   width="210mm"
   height="297mm"
   viewBox="0 0 210 297"
   version="1.1"
   id="svg1"
   inkscape:version="1.4 (86a8ad7, 2024-10-11)"
   sodipodi:docname="yellobandaidcross.svg"
   xmlns:inkscape="http://www.inkscape.org/namespaces/inkscape"
   xmlns:sodipodi="http://sodipodi.sourceforge.net/DTD/sodipodi-0.dtd"
   xmlns="http://www.w3.org/2000/svg"
   xmlns:svg="http://www.w3.org/2000/svg">
  <sodipodi:namedview
     id="namedview1"
     pagecolor="#505050"
     bordercolor="#eeeeee"
     borderopacity="1"
     inkscape:showpageshadow="0"
     inkscape:pageopacity="0"
     inkscape:pagecheckerboard="0"
     inkscape:deskcolor="#505050"
     inkscape:document-units="mm"
     inkscape:zoom="1.5393939"
     inkscape:cx="396.58465"
     inkscape:cy="561.25984"
     inkscape:window-width="3840"
     inkscape:window-height="1994"
     inkscape:window-x="2869"
     inkscape:window-y="49"
     inkscape:window-maximized="1"
     inkscape:current-layer="layer1" />
  <defs
     id="defs1" />
  <g
     inkscape:label="Layer 1"
     inkscape:groupmode="layer"
     id="layer1">
    <path
       d="m 113.02047,134.27721 1.77747,-1.77761 c 0.18945,-0.18952 0.29581,-0.44651 0.29581,-0.71448 0,-0.26797 -0.10636,-0.52496 -0.29581,-0.71446 l -1.91796,-1.92149 c -0.18971,-0.18918 -0.44662,-0.29543 -0.71438,-0.29543 -0.26775,0 -0.52466,0.10625 -0.71437,0.29543 l -1.78065,1.7776 -1.7772,-1.7776 c -0.0939,-0.0942 -0.20558,-0.16889 -0.32861,-0.21987 -0.12277,-0.051 -0.25453,-0.0772 -0.38762,-0.0772 -0.13282,0 -0.26458,0.0262 -0.38761,0.0772 -0.12277,0.051 -0.23442,0.1257 -0.32835,0.21987 l -1.91797,1.91817 c -0.18944,0.18951 -0.2958,0.4465 -0.2958,0.71447 0,0.26797 0.10636,0.52496 0.2958,0.71446 l 1.77747,1.78094 -1.77747,1.77757 c -0.0942,0.0939 -0.16907,0.2055 -0.22013,0.3284 -0.0511,0.1229 -0.0773,0.25466 -0.0773,0.38775 0,0.13309 0.0262,0.26485 0.0773,0.38775 0.0511,0.12287 0.12594,0.23447 0.22013,0.32837 l 1.91797,1.91707 c 0.18944,0.18944 0.44635,0.29588 0.71437,0.29588 0.26803,0 0.52494,-0.10644 0.71438,-0.29588 l 1.78064,-1.77761 1.77747,1.77761 c 0.18945,0.18944 0.44636,0.29588 0.71438,0.29588 0.26776,0 0.52467,-0.10644 0.71437,-0.29588 l 1.92114,-1.91707 c 0.18945,-0.18949 0.29581,-0.44651 0.29581,-0.71445 0,-0.26797 -0.10636,-0.52499 -0.29581,-0.71448 z m -3.82137,-0.47152 c 0.0508,-0.0507 0.11985,-0.0792 0.19155,-0.0792 0.0717,0 0.1405,0.0285 0.19156,0.0792 0.0505,0.0508 0.0791,0.11967 0.0791,0.19148 0,0.0718 -0.0286,0.14065 -0.0791,0.19148 -0.0511,0.0507 -0.11985,0.0792 -0.19156,0.0792 -0.0717,0 -0.14075,-0.0285 -0.19155,-0.0792 -0.0505,-0.0508 -0.0791,-0.1197 -0.0791,-0.19148 0,-0.0718 0.0286,-0.14065 0.0791,-0.19148 z m -0.26432,1.02492 c -0.0508,0.0507 -0.11986,0.0792 -0.19156,0.0792 -0.0717,0 -0.14076,-0.0285 -0.19156,-0.0792 -0.0505,-0.0508 -0.0791,-0.11967 -0.0791,-0.19148 0,-0.0718 0.0286,-0.14065 0.0791,-0.19148 0.0508,-0.0507 0.11986,-0.0792 0.19156,-0.0792 0.0717,0 0.14076,0.0285 0.19156,0.0792 0.0505,0.0508 0.0791,0.1197 0.0791,0.19148 0,0.0718 -0.0286,0.14065 -0.0791,0.19148 z m 1.28137,-0.39624 c 0.0508,0.0508 0.0791,0.1197 0.0791,0.19148 0,0.0718 -0.0283,0.14065 -0.0791,0.19148 -0.0508,0.0507 -0.11959,0.0792 -0.19129,0.0792 -0.072,0 -0.14076,-0.0285 -0.19156,-0.0792 -0.0508,-0.0508 -0.0791,-0.11967 -0.0791,-0.19148 0,-0.0718 0.0283,-0.14066 0.0791,-0.19148 0.0516,-0.05 0.12092,-0.0774 0.19262,-0.0764 0.0717,0.001 0.14023,0.0305 0.19023,0.0819 z m 0.26459,-0.64752 c 0.0508,-0.0507 0.11959,-0.0792 0.19156,-0.0792 0.0717,0 0.14049,0.0285 0.19129,0.0792 0.0508,0.0509 0.0791,0.1197 0.0791,0.19151 0,0.0718 -0.0283,0.14065 -0.0791,0.19148 -0.0508,0.0507 -0.11959,0.0792 -0.19129,0.0792 -0.072,0 -0.14076,-0.0285 -0.19156,-0.0792 -0.0489,-0.0506 -0.0765,-0.11827 -0.0765,-0.18873 0,-0.0704 0.0275,-0.13811 0.0765,-0.1887 z m -0.63421,-0.25124 c -0.0505,-0.0508 -0.0791,-0.1197 -0.0791,-0.19148 0,-0.0718 0.0286,-0.14066 0.0791,-0.19148 0.0508,-0.0507 0.11986,-0.0792 0.19156,-0.0792 0.0717,0 0.14049,0.0285 0.19129,0.0792 0.0508,0.0508 0.0794,0.11969 0.0794,0.19148 0,0.0718 -0.0286,0.14065 -0.0794,0.19148 -0.05,0.0514 -0.11853,0.0809 -0.19023,0.0819 -0.0717,10e-4 -0.14102,-0.0264 -0.19262,-0.0764 z m -0.25109,-1.0172 c 0.0505,0.0508 0.0791,0.1197 0.0791,0.19148 0,0.0718 -0.0286,0.14066 -0.0791,0.19148 -0.0508,0.0507 -0.11985,0.0792 -0.19156,0.0792 -0.0717,0 -0.14049,-0.0285 -0.19155,-0.0792 -0.0505,-0.0508 -0.0791,-0.11967 -0.0791,-0.19148 0,-0.0718 0.0286,-0.14065 0.0791,-0.19148 0.0516,-0.0499 0.12091,-0.0774 0.19261,-0.0764 0.072,10e-4 0.14023,0.0305 0.1905,0.0819 z m -0.64743,0.65194 c 0.0505,0.0508 0.0791,0.1197 0.0791,0.19148 0,0.0718 -0.0286,0.14065 -0.0791,0.19148 -0.0508,0.0507 -0.11986,0.0792 -0.19156,0.0792 -0.0717,0 -0.1405,-0.0285 -0.1913,-0.0792 -0.0511,-0.0507 -0.0796,-0.11946 -0.0799,-0.19125 0,-0.0718 0.0281,-0.14073 0.0786,-0.19171 0.0254,-0.0253 0.0553,-0.0453 0.0881,-0.059 0.0331,-0.0137 0.0683,-0.0207 0.10398,-0.0207 0.0357,0 0.0709,0.007 0.10398,0.0207 0.0328,0.0137 0.063,0.0337 0.0881,0.059 z m -0.64744,0.64751 c 0.0505,0.0508 0.0791,0.1197 0.0791,0.19148 0,0.0718 -0.0286,0.14065 -0.0791,0.19148 -0.0508,0.0507 -0.11959,0.0792 -0.19156,0.0792 -0.0717,0 -0.14049,-0.0285 -0.19129,-0.0792 -0.0508,-0.0508 -0.0791,-0.1197 -0.0791,-0.19148 0,-0.0718 0.0283,-0.14065 0.0791,-0.19148 0.0508,-0.0506 0.11986,-0.0788 0.19156,-0.0786 0.0717,2.2e-4 0.14049,0.0289 0.19129,0.0797 z m 0.36301,3.17111 -1.83383,-1.83515 c -0.0212,-0.0206 -0.0381,-0.0453 -0.0497,-0.0726 -0.0114,-0.0273 -0.0175,-0.0566 -0.0175,-0.0862 0,-0.0296 0.006,-0.059 0.0175,-0.0862 0.0116,-0.0273 0.0286,-0.052 0.0497,-0.0726 0.0206,-0.0213 0.0452,-0.0382 0.0725,-0.0497 0.0273,-0.0116 0.0566,-0.0175 0.0863,-0.0175 0.0296,0 0.059,0.006 0.0863,0.0175 0.0273,0.0115 0.0519,0.0284 0.0725,0.0497 l 1.83383,1.83515 c 0.0214,0.0206 0.0381,0.0453 0.0497,0.0726 0.0116,0.0273 0.0175,0.0566 0.0175,0.0862 0,0.0296 -0.006,0.059 -0.0175,0.0862 -0.0116,0.0273 -0.0283,0.052 -0.0497,0.0726 -0.0206,0.0213 -0.0452,0.0382 -0.0725,0.0497 -0.0272,0.0115 -0.0566,0.0175 -0.0863,0.0175 -0.0296,0 -0.059,-0.006 -0.0862,-0.0175 -0.0273,-0.0115 -0.0519,-0.0284 -0.0725,-0.0497 z m 0.52123,-1.90156 c 0.0508,-0.0507 0.11959,-0.0792 0.19156,-0.0792 0.0717,0 0.14049,0.0285 0.19129,0.0792 0.0508,0.0508 0.0791,0.1197 0.0791,0.19148 0,0.0718 -0.0283,0.14065 -0.0791,0.19148 -0.0508,0.0507 -0.11959,0.0792 -0.19129,0.0792 -0.072,0 -0.14076,-0.0285 -0.19156,-0.0792 -0.0505,-0.051 -0.0789,-0.11991 -0.0786,-0.19172 2.6e-4,-0.0718 0.0288,-0.14054 0.0796,-0.19124 z m 0.63421,1.01719 c -0.0508,-0.0508 -0.0794,-0.11969 -0.0794,-0.19148 0,-0.0718 0.0286,-0.14065 0.0794,-0.1915 0.0508,-0.0507 0.11959,-0.0791 0.19129,-0.0791 0.072,0 0.14076,0.0285 0.19156,0.0791 0.0505,0.0508 0.0791,0.1197 0.0791,0.1915 0,0.0718 -0.0286,0.14066 -0.0791,0.19148 -0.0508,0.0504 -0.11933,0.0786 -0.19103,0.0786 -0.0714,0 -0.13997,-0.0283 -0.19077,-0.0786 z m 0.64743,-0.64751 c -0.0508,-0.0508 -0.0794,-0.1197 -0.0794,-0.19148 0,-0.0718 0.0286,-0.14065 0.0794,-0.19148 0.0508,-0.0507 0.11959,-0.0792 0.19129,-0.0792 0.0717,0 0.14076,0.0285 0.19156,0.0792 0.0505,0.0508 0.0791,0.1197 0.0791,0.19148 0,0.0718 -0.0286,0.14065 -0.0791,0.19148 -0.0508,0.0504 -0.11932,0.0786 -0.19103,0.0786 -0.0714,0 -0.13996,-0.0283 -0.19076,-0.0786 z m 0.64294,-0.64749 c -0.0508,-0.0508 -0.0791,-0.1197 -0.0791,-0.19151 0,-0.0718 0.0283,-0.14065 0.0791,-0.19147 0.0508,-0.0507 0.11959,-0.0792 0.19129,-0.0792 0.072,0 0.14076,0.0285 0.19156,0.0792 0.0508,0.0508 0.0791,0.11969 0.0791,0.19147 0,0.0718 -0.0283,0.14066 -0.0791,0.19151 -0.0508,0.0507 -0.11959,0.0791 -0.19156,0.0791 -0.0717,0 -0.14049,-0.0285 -0.19129,-0.0791 z m 0.95065,-1.21753 -1.82933,-1.8396 c -0.0214,-0.0206 -0.0384,-0.0453 -0.0497,-0.0726 -0.0117,-0.0273 -0.0175,-0.0566 -0.0175,-0.0862 0,-0.0296 0.006,-0.0589 0.0175,-0.0862 0.0114,-0.0273 0.0283,-0.052 0.0497,-0.0726 0.0206,-0.0212 0.0452,-0.0382 0.0725,-0.0497 0.0272,-0.0115 0.0566,-0.0175 0.0863,-0.0175 0.0296,0 0.059,0.006 0.0863,0.0175 0.0272,0.0115 0.0519,0.0284 0.0725,0.0497 l 1.83382,1.83515 c 0.0212,0.0206 0.0381,0.0453 0.0498,0.0726 0.0114,0.0273 0.0175,0.0566 0.0175,0.0862 0,0.0296 -0.006,0.059 -0.0175,0.0862 -0.0117,0.0273 -0.0286,0.052 -0.0498,0.0726 -0.0206,0.0213 -0.0452,0.0382 -0.0725,0.0497 -0.0275,0.0115 -0.0566,0.0175 -0.0863,0.0175 -0.0296,0 -0.059,-0.006 -0.0863,-0.0175 -0.0272,-0.0115 -0.0521,-0.0284 -0.0728,-0.0497 z"
       fill="#ffdd3b"
       id="path37"
       style="stroke-width:0.264583" />
  </g>
</svg>
