<?xml version="1.0" encoding="UTF-8" standalone="no"?>
<!-- Created with Inkscape (http://www.inkscape.org/) -->

<svg
   width="210mm"
   height="297mm"
   viewBox="0 0 210 297"
   version="1.1"
   id="svg1"
   inkscape:version="1.4 (86a8ad7, 2024-10-11)"
   sodipodi:docname="ladderyellow.svg"
   xmlns:inkscape="http://www.inkscape.org/namespaces/inkscape"
   xmlns:sodipodi="http://sodipodi.sourceforge.net/DTD/sodipodi-0.dtd"
   xmlns="http://www.w3.org/2000/svg"
   xmlns:svg="http://www.w3.org/2000/svg">
  <sodipodi:namedview
     id="namedview1"
     pagecolor="#505050"
     bordercolor="#eeeeee"
     borderopacity="1"
     inkscape:showpageshadow="0"
     inkscape:pageopacity="0"
     inkscape:pagecheckerboard="0"
     inkscape:deskcolor="#505050"
     inkscape:document-units="mm"
     inkscape:zoom="1.5393939"
     inkscape:cx="396.58465"
     inkscape:cy="561.25984"
     inkscape:window-width="3840"
     inkscape:window-height="1994"
     inkscape:window-x="2869"
     inkscape:window-y="49"
     inkscape:window-maximized="1"
     inkscape:current-layer="layer1" />
  <defs
     id="defs1" />
  <g
     inkscape:label="Layer 1"
     inkscape:groupmode="layer"
     id="layer1">
    <path
       d="m 137.85532,131.83388 -0.55298,1.34221 -2.68446,-1.10592 0.55298,-1.34221 -1.34223,-0.55296 -0.55298,1.34221 -0.55298,1.3422 -0.55271,1.34223 -0.55298,1.34221 -0.55298,1.3422 -0.55298,1.34221 -0.55298,1.3422 -0.55298,1.34221 -0.55298,1.34223 1.34223,0.55295 0.55298,-1.3422 2.68447,1.1059 -0.55298,1.34223 1.34223,0.55296 0.55298,-1.34221 0.55298,-1.34223 0.55271,-1.3422 0.55298,-1.34221 0.55298,-1.3422 0.55298,-1.34221 0.55298,-1.34223 0.55298,-1.3422 0.55298,-1.34221 z m -3.87059,9.39547 -2.68446,-1.10591 0.55298,-1.34223 2.68446,1.10593 z m 1.1057,-2.68441 -2.6842,-1.10593 0.55298,-1.34221 2.6842,1.10593 z m 1.10596,-2.68444 -2.68447,-1.1059 0.55298,-1.34221 2.68447,1.10591 z"
       fill="#ffdd3b"
       id="path36"
       style="stroke-width:0.264583" />
  </g>
</svg>
